<?xml version="1.0" standalone="no"?>
<!DOCTYPE svg PUBLIC "-//W3C//DTD SVG 1.1//EN" "http://www.w3.org/Graphics/SVG/1.1/DTD/svg11.dtd" >
<!--
2013-9-30: Created.
-->
<svg>
<metadata>
Created by iconfont
</metadata>
<defs>

<font id="portal" horiz-adv-x="1024" >
  <font-face
    font-family="portal"
    font-weight="500"
    font-stretch="normal"
    units-per-em="1024"
    ascent="896"
    descent="-128"
  />
    <missing-glyph />
    
    <glyph glyph-name="bangzhuzhongxin" unicode="&#58958;" d="M508.3 246.2c9.6 0 18-2.8 24.7-9.6 6.2-6.2 9.6-14.1 9.6-23.6 0-10.1-3.4-18-10.1-24.2-6.7-6.2-14.6-9.6-24.2-9.6s-17.4 3.4-24.2 9.6c-6.7 6.7-9.6 14.6-9.6 24.2s2.8 17.4 9.6 23.6c6.8 6.8 14.7 9.6 24.2 9.6z m8.5 342.5c36 0 64.7-9.6 86.6-29.8 20.8-19.1 31.5-45.5 31.5-79.3 0-25.3-7.3-47.2-21.4-65.8-5.6-6.7-20.8-21.4-45.5-43.3-12.4-10.7-20.8-20.8-26.4-30.9-7.3-12.4-10.7-25.9-10.7-41v-12.9h-45v12.9c0 18.6 3.4 34.9 10.1 48.9 7.9 16.9 26.4 38.2 56.8 65.2 9 9 15.7 15.7 19.1 20.2 11.2 14.1 16.9 28.7 16.9 44.4 0 22.5-6.7 39.9-19.1 52.3-12.9 13.5-31.5 19.7-55.1 19.7-28.1 0-48.9-9-62.4-27.6-12.4-15.7-18.6-37.1-18.6-64.7h-44.4c0 39.4 10.7 70.9 33.2 94.5 22.4 24.8 53.9 37.2 94.4 37.2zM512 832C265 832 64 631 64 384s201-448 448-448 448 201 448 448S759 832 512 832z m0-851.2c-222.7 0-403.2 180.5-403.2 403.2S289.3 787.2 512 787.2 915.2 606.7 915.2 384 734.7-19.2 512-19.2z"  horiz-adv-x="1024" />

    
    <glyph glyph-name="fabu" unicode="&#58959;" d="M946.3 792.7c-9.1 6.1-19.7 7.6-30.4 3L82.2 420.6C71.6 416.1 64 405.5 64 393.3c0-12.1 7.6-22.8 18.2-27.3l243-110.9c15.2-7.6 33.4 0 41 15.2 7.6 15.2 0 33.4-15.2 41l-182.2 82 636.3 285.5L419.4 246s0-1.5-1.5-1.5l-1.5-1.5-1.5-1.5v-4.6c0-1.5 0-1.5-1.5-3v-7.6L408.7 0c0-12.2 6.1-22.8 16.7-27.3 4.6-3 9.1-3 13.7-3 6.1 0 12.2 1.5 18.2 6.1l179.2 130.6 188.3-85c4.6-1.5 7.6-3 12.1-3 4.6 0 10.6 1.5 15.2 4.6 9.1 4.6 13.7 13.7 15.2 22.8L960 765.4c0 9.1-6.1 19.7-13.7 27.3zM469.5 59.2l3 118.5 97.2-45.6-100.2-72.9z m341.7 33.4L492.3 235.4l393.3 443.4-74.4-586.2z"  horiz-adv-x="1024" />

    
    <glyph glyph-name="gengduo" unicode="&#58960;" d="M153.6 295.4c-49.5 0-89.6 39.7-89.6 88.6 0 48.9 40.1 88.6 89.6 88.6s89.6-39.7 89.6-88.6c0-48.9-40.1-88.6-89.6-88.6m358.4 0c-49.5 0-89.6 39.7-89.6 88.6 0 48.9 40.1 88.6 89.6 88.6 49.5 0 89.6-39.7 89.6-88.6 0-48.9-40.1-88.6-89.6-88.6m358.4 0c-49.5 0-89.6 39.7-89.6 88.6 0 48.9 40.1 88.6 89.6 88.6 49.5 0 89.6-39.7 89.6-88.6 0-48.9-40.1-88.6-89.6-88.6"  horiz-adv-x="1024" />

    
    <glyph glyph-name="bianjimuban" unicode="&#58961;" d="M954.6 406.7l-87.2 88.9c-7.3 7.3-19.1 7.3-26.8 0l-60.8-61.9-243.3-245.2c-3.2-3.7-5.4-8.2-5.4-13.3l-0.5-89.4c0-5 1.8-10.1 5.4-13.7 3.6-3.7 8.2-5.5 13.2-5.5l88.1 0.5c5 0 9.5 1.8 13.2 5.5l304.2 307c7.1 7.4 7.1 19.3-0.1 27.1zM630 105.6l-61.7-0.5 0.5 61.9 224.3 226.4 61.3-61.9L630 105.6z m251 252.9l-61.3 61.9 34.5 34.8 61.3-61.9-34.5-34.8zM336.3 115.8h-49.5V457.4h445.5v-1.1l49.5 47.9V652.5c0 27-22.2 48.8-49.5 48.8H113.5c-27.4 0-49.5-21.8-49.5-48.8v-536.7c0-27 22.2-48.8 49.5-48.8h370.4v48.8H336.3z m-49.5 536.7h445.5v-146.4H286.8V652.5z m-49.5-536.7H113.5V652.5h123.8v-536.7z"  horiz-adv-x="1024" />

    
    <glyph glyph-name="baocun" unicode="&#58962;" d="M641.2 340.9c11.2 11.2 11.2 28.7 0 39.9L531 491c-4.8 4.8-12.8 8-19.2 8-6.4 0-14.4-3.2-19.2-8L382.4 380.8c-4.8-4.8-8-12.8-8-19.2 0-8 3.2-14.4 8-19.2 4.8-4.8 12.8-8 19.2-8 8 0 14.4 3.2 19.2 8l59.1 59.1V98c0-14.4 12.8-27.2 27.1-27.2 16 0 27.2 12.8 27.2 27.2V406.4l65.5-65.5c4.8-4.8 12.8-8 19.2-8 11.1 0 17.5 1.6 22.3 8M908.9 424.6C942.4 386.2 960 336.7 960 284c0-115-105.4-199.6-202.8-209.2h-71.9c-16 0-27.2 12.8-27.2 27.2 0 16 12.8 27.1 27.2 27.1h70.3c71.9 8 146.9 68.7 146.9 153.3 0 86.2-65.5 153.3-148.5 153.3-16 0-27.2 12.8-27.2 27.1 0 118.2-94.2 214-210.8 214-116.6 0-212.4-95.8-212.4-214 0-16-12.8-27.1-27.1-27.1-86.2 0-156.5-68.7-156.5-153.3 0-76.7 59.1-143.7 134.2-153.3h70.3c16 0 27.1-12.8 27.1-27.1 0-16-12.8-27.2-27.1-27.2h-70.3C147.1 84.4 64 175.4 64 284c0 52.7 19.2 102.2 54.3 140.5 33.5 36.7 79.9 60.7 131 67.1 6.4 65.5 36.7 126.2 84.6 172.5 49.5 46.3 115 71.9 182.1 71.9s132.6-25.6 182.1-71.9c47.9-44.7 78.3-105.4 84.7-172.5 49.4-6.3 92.6-30.3 126.1-67"  horiz-adv-x="1024" />

    
    <glyph glyph-name="bianji" unicode="&#58963;" d="M926.7-0.4H97.3c-17.4 0-31.1-14.7-31.1-31.8S80.6-64 97.3-64h830.2c17.4 0 31.1 14.7 31.1 31.8 0 17-14.4 31.8-31.9 31.8zM66.2 280.9l-0.8-151.1c0-8.5 3-17.1 9.1-23.3 6.1-6.2 13.6-9.3 22-9.3l147.1 0.8c8.3 0 15.9 3.1 22 9.3l508 519.3c12.1 12.4 12.1 32.6 0 45.7L628 822.7c-12.1 12.4-31.8 12.4-44.7 0L481.7 718.1 75.3 303.4c-5.3-6.2-9.1-14-9.1-22.5zM606 754.5l102.4-104.6-57.6-58.9-102.4 104.6 57.6 58.9zM129.1 267l374.5 382.9L606 545.2 231.5 163.1l-103.1-0.8 0.7 104.7z"  horiz-adv-x="1024" />

    
    <glyph glyph-name="menhuguanli" unicode="&#58964;" d="M896 768H128c-35.3 0-64-28.7-64-64v-512c0-35.3 28.7-64 64-64h768c35.3 0 64 28.7 64 64V704c0 35.3-28.7 64-64 64z m0-576H128l-0.1 512H896v-512zM352 64h320c17.7 0 32-14.3 32-32s-14.3-32-32-32H352c-17.7 0-32 14.3-32 32s14.3 32 32 32z"  horiz-adv-x="1024" />

    
    <glyph glyph-name="heshidaxiao" unicode="&#58965;" d="M721.1 652.8H302.9c-33 0-59.7-26.7-59.7-59.7V175c0-33 26.7-59.7 59.7-59.7H721c33 0 59.7 26.7 59.7 59.7V593.1c0.1 33-26.6 59.7-59.6 59.7z m0-477.9H302.9l-0.1 418.1H721v-418.1zM273.1 832H93.9C77.4 832 64 818.6 64 802.1v-179.2c0-16.5 13.4-29.9 29.9-29.9s29.9 13.4 29.9 29.9V772.3h149.3c16.5 0 29.9 13.4 29.9 29.9-0.1 16.4-13.4 29.8-29.9 29.8zM273.1-4.3H123.7V145.1c0 16.5-13.4 29.9-29.9 29.9s-29.9-13.4-29.9-29.9v-179.2c0-16.5 13.4-29.9 29.9-29.9H273c16.5 0 29.9 13.4 29.9 29.9s-13.3 29.8-29.8 29.8zM930.1 832H750.9C734.4 832 721 818.6 721 802.1s13.4-29.9 29.9-29.9h149.3v-149.3c0-16.5 13.4-29.9 29.9-29.9s29.9 13.4 29.9 29.9V802.1c0 16.5-13.4 29.9-29.9 29.9zM930.1 174.9c-16.5 0-29.9-13.4-29.9-29.9v-149.3H750.9c-16.5 0-29.9-13.4-29.9-29.9s13.4-29.9 29.9-29.9h179.2c16.5 0 29.9 13.4 29.9 29.9V145.1c0 16.5-13.4 29.8-29.9 29.8z"  horiz-adv-x="1024" />

    
    <glyph glyph-name="mubanyemian" unicode="&#58966;" d="M901.9 763.9H122.1c-34.5 0-62.4-26.2-62.4-58.5v-642.9c0-32.3 27.9-58.5 62.4-58.5h779.8c34.5 0 62.4 26.2 62.4 58.5V705.4c0.1 32.3-27.9 58.5-62.4 58.5zM293.5 84.3H144.3V680.7h149.2v-596.4z m586.6 0H368.3V450.6c5.4-1 27.2-1.6 32.9-1.6h478.9v-364.7z m0.1 434.8H368.8V680.7h511.3v-161.6z"  horiz-adv-x="1024" />

    
    <glyph glyph-name="mobanku" unicode="&#58967;" d="M885.3 832H138.7C97.4 832 64 798.6 64 757.3V608c0-41.2 33.4-74.7 74.7-74.7h746.7c41.2 0 74.7 33.4 74.7 74.7V757.3C960 798.6 926.6 832 885.3 832z m0-224H138.7l-0.1 149.3H885.4V608zM288 458.7H138.7C97.4 458.7 64 425.2 64 384v-373.3c0-41.2 33.4-74.7 74.7-74.7H288c41.2 0 74.7 33.4 74.7 74.7V384c0 41.2-33.5 74.7-74.7 74.7z m0-448H138.7l-0.1 373.3H288v-373.3zM885.3 458.7H512c-41.2 0-74.7-33.4-74.7-74.7v-373.3c0-41.2 33.4-74.7 74.7-74.7h373.3c41.2 0 74.7 33.4 74.7 74.7V384c0 41.2-33.4 74.7-74.7 74.7z m0-448H512l-0.1 373.3H885.3v-373.3z"  horiz-adv-x="1024" />

    
    <glyph glyph-name="lianjieyemian" unicode="&#58968;" d="M373.8 215.1L251.1 97.7l-82.5 78.4 292.7 289.1 67.6-65.5c20.5-20 53.6-18.7 74 1.3 20.5 20 20.5 55 0 75.1l-67.6 71.5c-19.7 19.3-45.9 40.6-73.9 40.6h-0.2c-28 0-54.3-21.5-74-40.9l-293-299.5c-19.7-19.5-30.4-45.3-30.2-72.7 0.3-27.4 11.4-53 31.4-72.1l82.5-78.8c20.4-19.4 47.1-29.1 73.8-29.1 26.9 0 53.9 9.9 74.4 29.6l121.4 117.5c20.5 19.9 20.7 52.3 0.4 72.4-20.4 20.2-53.5 20.4-74.1 0.5z m475.6 526.3c-19.4 20-45.6 31.2-73.7 31.5-26.9-0.7-54.5-10.4-74.3-30L581.1 624.2c-20.3-20.1-20.2-52.5 0.4-72.4 20.5-20 53.6-19.8 74.1 0.3l117.9 118.7 81.6-86.7-283.9-286.8-60.5 64.4c-19.5 20.9-52.6 21.4-74 2.3-21.4-19-22.9-53.6-3.5-74.5l60.5-69.5c19.2-20.5 45.2-41.5 73.4-41.5h2c27.4 0 53.1 19.4 72.7 38.8l288.1 295.2c39.7 39.6 40.3 104.6 1.2 144.8l-81.7 84.1z"  horiz-adv-x="1024" />

    
    <glyph glyph-name="neirongguanli" unicode="&#58969;" d="M848 720c0 30.9-25.1 56-56 56H232c-30.9 0-56-25.1-56-56v-672c0-30.9 25.1-56 56-56h375.6c14.5 0 28.4 5.6 38.9 15.7L848 202.1V720z m-56-494.1L607.6 48H232l-0.1 672H792v-494.1zM372 608h280c15.5 0 28-12.5 28-28s-12.5-28-28-28H372c-15.5 0-28 12.5-28 28s12.5 28 28 28zM372 496h280c15.5 0 28-12.5 28-28s-12.5-28-28-28H372c-15.5 0-28 12.5-28 28s12.5 28 28 28zM372 384h280c15.5 0 28-12.5 28-28s-12.5-28-28-28H372c-15.5 0-28 12.5-28 28s12.5 28 28 28zM372 272h112c15.5 0 28-12.5 28-28s-12.5-28-28-28H372c-15.5 0-28 12.5-28 28s12.5 28 28 28z"  horiz-adv-x="1024" />

    
    <glyph glyph-name="putongyemian" unicode="&#58970;" d="M238.8 832c-61 0-109.3-47.3-109.3-104.5v-686.9c0-57.2 48.3-104.5 109.3-104.5h546.5c58.5 0 109.3 47.3 109.3 104.5V620.4L673.4 832H238.8z m515.9-833.8H264.2c-40.7 0-66.1 22.4-66.1 62.2V705.1c0 39.8 25.4 59.7 66.1 59.7h386.3v-114.5c0-22.4 20.3-42.3 43.2-42.3h134.7v-547.6c2.6-39.8-30.5-62.2-73.7-62.2zM643.4 224.7H382.6c-15.3 0-28 12.4-28 27.4s12.7 27.4 28 27.4h258.2c15.3 0 28-12.4 28-27.4s-10.2-27.4-25.4-27.4z m0 104.5H382.6c-15.3 0-28 12.4-28 27.4 0 14.9 12.7 27.4 28 27.4h258.2c15.3 0 28-12.4 28-27.4 0-14.9-10.2-27.4-25.4-27.4z m0 107.1H382.6c-15.3 0-28 12.4-28 27.4 0 14.9 12.7 27.4 28 27.4h258.2c15.3 0 28-12.4 28-27.4 0-15-10.2-27.4-25.4-27.4z"  horiz-adv-x="1024" />

    
    <glyph glyph-name="shezhi" unicode="&#58971;" d="M950.6 473.9c-5.2 28.4-22.1 46.8-43 46.8H903c-60.5 0-109.7 50.6-109.7 112.7 0 20.2 9.5 42.8 9.5 43 10.8 25.1 2.5 55.8-19.4 71.5l-1.3 1-111 63.4-1.4 0.6c-7.2 3.2-15.2 4.9-23.6 4.9-17.2 0-34.1-7.1-45.2-19-12.2-12.8-54.3-49.8-86.6-49.8-32.6 0-75 37.7-87.2 50.8-11.2 12.1-28.2 19.3-45.6 19.3-8.2 0-16-1.6-23.1-4.7l-1.4-0.6-115.1-65-1.4-1c-21.9-15.7-30.3-46.4-19.5-71.5 0.1-0.2 9.6-22.7 9.6-43 0-62.2-49.2-112.7-109.7-112.7h-4.6c-20.9 0-37.8-18.4-43-46.8-0.4-2.1-9.4-51.5-9.4-90.2s9-88.1 9.4-90.2c5.2-28.4 22.1-46.8 43-46.8h4.5c60.5 0 109.7-50.6 109.7-112.7 0-20.2-9.5-42.8-9.5-43-10.8-25.1-2.5-55.8 19.3-71.5l1.3-0.9 109-62.7 1.4-0.6c7.2-3.3 15.1-4.9 23.5-4.9 17.4 0 34.5 7.4 45.6 19.8 15.5 17.3 57.5 53 88.5 53 33.6 0 76.7-40 89.1-54.1 11.1-12.6 28.3-20.1 45.9-20.1 8.2 0 15.9 1.6 23.1 4.8l1.4 0.6 113 64.2 1.3 1c21.9 15.7 30.3 46.4 19.5 71.4-0.1 0.2-9.6 23-9.6 43.1 0 62.2 49.2 112.7 109.7 112.7h4.4c21 0 37.9 18.4 43.1 46.8 0.1 0.5 9.4 50.6 9.4 90.2 0.1 38.8-8.9 88.1-9.3 90.2m-60.9-163.1c-89.7-7.1-159.3-83.9-159.3-176.9 0-26.7 8.5-52.6 12.7-63.7L644 13.9c-4.3 4.7-18.7 19.9-38.7 35.1-33.7 25.7-65.9 38.7-95.8 38.7-29.6 0-61.6-12.8-95-38-19.7-14.8-34.2-29.9-38.5-34.5L280.6 70c4.2 11.1 12.8 37 12.8 63.8 0 93-69.6 169.9-159.3 176.9-2.2 13.1-7.3 46.7-7.3 72.8 0 26.1 5.2 59.7 7.3 72.8 89.7 7.1 159.3 83.9 159.3 176.9 0 26.7-8.5 52.5-12.7 63.6l101.5 57.3c3.7-3.8 18.3-18.8 38.5-33.6 33-24.2 64.5-36.5 93.5-36.5 28.7 0 59.9 12 92.7 35.8 20.1 14.5 34.7 29.2 38.3 32.9l97.8-55.9c-4.2-11.1-12.7-37-12.7-63.7 0-93 69.6-169.9 159.3-176.9 2.2-13.1 7.3-46.8 7.3-72.8 0.1-25.9-5-59.5-7.2-72.6M510.1 547.4c-87.5 0-158.7-73.2-158.7-163.1s71.2-163.1 158.7-163.1 158.7 73.2 158.7 163.1c-0.1 89.9-71.2 163.1-158.7 163.1m0-261.6c-52.8 0-95.7 44.1-95.7 98.4s42.9 98.4 95.7 98.4 95.7-44.1 95.7-98.4c0-54.2-43-98.4-95.7-98.4"  horiz-adv-x="1024" />

    
    <glyph glyph-name="sousuo" unicode="&#58972;" d="M987.587405-74.965472L829.484473 83.137459c1.778936 1.778936 3.669055 3.557872 5.447992 5.336808 43.472747 43.472747 77.494897 94.061238 101.399348 150.320087 24.682736 58.371336 37.135288 120.300543 37.135288 184.11987s-12.563735 125.859718-37.135288 184.119869c-23.793268 56.370033-57.926602 106.958523-101.399348 150.320087-43.472747 43.472747-94.061238 77.494897-150.320087 101.399349C626.241042 883.547448 564.200651 896 500.381325 896c-63.819327 0-125.859718-12.563735-184.11987-37.246471-56.370033-23.793268-106.958523-57.926602-150.320087-101.399349C122.468621 713.881433 88.446471 663.292942 64.54202 606.92291 39.859283 548.773941 27.295548 486.73355 27.295548 422.914224s12.563735-125.859718 37.135288-184.11987c23.793268-56.370033 57.926602-106.958523 101.399349-150.320087 43.472747-43.472747 94.061238-77.494897 150.320086-101.399348 58.371336-24.682736 120.300543-37.135288 184.11987-37.135288s125.859718 12.563735 184.11987 37.135288c34.800434 14.676221 67.377199 33.355049 97.507926 55.702931l161.660803-161.660803c12.007818-11.674267 31.131379-11.674267 43.250381 0 12.452552 11.896634 12.786102 31.576113 0.778284 43.917481zM500.381325 5.420195c-111.517047 0-216.363084 43.472747-295.192183 122.301846S82.887296 311.397177 82.887296 422.914224C82.887296 534.43127 126.360043 639.277307 205.189142 718.106406 284.018241 797.046688 388.864278 840.408252 500.381325 840.408252 611.898371 840.408252 716.744408 797.046688 795.573507 718.106406c78.829099-78.829099 122.301846-183.675136 122.301846-295.192182 0-111.517047-43.361564-216.363084-122.301846-295.192183-78.829099-78.829099-183.675136-122.301846-295.192182-122.301846z"  horiz-adv-x="1024" />

    
    <glyph glyph-name="xiazai" unicode="&#58973;" d="M878.5 17.5V221.1c0 22.5 18.2 40.7 40.7 40.7s40.7-18.2 40.7-40.7v-244.4c0-22.5-18.2-40.7-40.7-40.7H104.7C82.2-64 64-45.7 64-23.3V221.1c0 22.5 18.2 40.7 40.7 40.7 22.5 0 40.7-18.2 40.7-40.7v-203.6h733.1zM471.3 791.3c0 22.5 18.3 40.7 40.8 40.7 22.5 0 40.7-18.2 40.7-40.7v-570.2c0-22.5-18.2-40.7-40.7-40.7-22.5 0-40.7 18.2-40.7 40.7V791.3zM705.9 411.7c15.3 16.6 41.2 17.7 57.8 2.4 16.6-15.3 17.7-41.2 2.4-57.8L542.1 112c-15.1-16.6-40.9-17.9-57.5-2.7-1 0.9-1.9 1.8-2.7 2.7l-224 244.4c-15.3 16.6-14.2 42.5 2.4 57.8 16.6 15.3 42.5 14.2 57.8-2.4L512 199.9l193.9 211.8z"  horiz-adv-x="1024" />

    
    <glyph glyph-name="wenjianjia" unicode="&#58974;" d="M853.7-6.5H169.8C111.5-6.5 64 39.4 64 95.8V672.2c0 56.4 47.5 102.3 105.9 102.3h206.8c48.1 0 94.7-22.4 123.7-59.1h256.2c84.7 0 153.6-66.5 153.6-148.2v-14.6c5.3-1.1 11.4-2.8 17-7.5 33.8-28.2 33.2-54.4 32.6-82.2l-0.2-13.9v-353.3c0-56.3-47.5-102.2-105.9-102.2z m-100.5 60.1h100.5c25.3 0 45.8 19 45.8 42.2l0.2 368.5c0.4 20 0.5 24.1-6 30.3-36.3 7.5-43.6 26.8-43.6 42v30.6c0 48.6-42 88.1-93.5 88.1h-264c-14.6 0-28.2 7-36.3 18.8-17.3 24.8-47.9 40.3-79.6 40.3H169.9c-25.3 0-45.8-19-45.8-42.2v-576.4c0-23.3 20.5-42.2 45.8-42.2h583.3z m-247.7 655c0-0.1 0.1-0.1 0.1-0.2 0 0.1 0 0.1-0.1 0.2zM468.7 564.2h265c27.7 0 37.5-17.7 45.3-41.8 2.8-8.6-4.2-17.2-13.6-17.2H514c-26.3 0-51 16.2-58.7 41.4-3 8.6 3.8 17.6 13.4 17.6z"  horiz-adv-x="1024" />

    
    <glyph glyph-name="xinzeng" unicode="&#58975;" d="M462.2 433.8V832h99.6v-398.2H960v-99.6H561.8V-64h-99.6V334.2H64v99.6z"  horiz-adv-x="1024" />

    
    <glyph glyph-name="yulan-shangbian" unicode="&#58976;" d="M512 832C265 832 64 631 64 384s201-448 448-448 448 201 448 448S759 832 512 832z m0-851.2c-222.7 0-403.2 180.5-403.2 403.2S289.3 787.2 512 787.2 915.2 606.7 915.2 384 734.7-19.2 512-19.2zM672.2 418.7L471 538.8c-19.1 11.4-43.8 5.1-55.1-14-3.7-6.2-5.6-13.3-5.7-20.5l-0.2-240.6c0-22.2 18-40.2 40.2-40.2 7.3 0 14.4 2 20.6 5.7l201.4 120.5c19 11.5 25.2 36.2 13.7 55.3a40.8 40.8 0 0 1-13.7 13.7z m-222-155l0.2 240.7 201.2-120.2-201.4-120.5z"  horiz-adv-x="1024" />

    
    <glyph glyph-name="yulan-zuoce" unicode="&#58977;" d="M512.1 77.3c-181.9 0-357.9 110.6-439.1 275.6-11.9 17.6-11.9 44.3-0.2 62 79.8 167.7 251.8 275.8 439.3 275.8 181.8 0 357.6-110.4 438.8-275.1 11.4-16 12.2-38.7 1.5-60-78.7-168.7-251.7-278.3-440.3-278.3zM134.6 384c69.7-142.2 221-237.6 377.4-237.6 161.3 0 309.2 93.2 377.4 237.6-69.7 142.2-221 237.6-377.4 237.6-161.2 0-309.2-93.2-377.4-237.6z m377.5-151.2c-81.9 0-148.6 66.7-148.6 148.6S430.2 530 512.1 530s148.6-66.7 148.6-148.6S594 232.8 512.1 232.8z m0 228.1c-43.1 0-79.5-36.4-79.5-79.5s36.4-79.5 79.5-79.5 79.5 36.4 79.5 79.5-36.4 79.5-79.5 79.5z"  horiz-adv-x="1024" />

    


  </font>
</defs>
</svg>
